<svg width="40" height="42" viewBox="0 0 60 63" fill="none" xmlns="http://www.w3.org/2000/svg">
    <path d="M6.41846 37.695V24.6829H9.48714C10.5315 24.6829 11.2866 24.9253 11.7766 25.4183C12.2586 25.9113 12.4996 26.663 12.4996 27.6813V28.142C12.4996 29.4755 12.0578 30.3484 11.1821 30.7687C12.1943 31.1647 12.7004 32.0942 12.7004 33.557V34.6158C12.7004 35.618 12.4353 36.3857 11.9132 36.9111C11.391 37.4364 10.6198 37.7031 9.61567 37.7031H6.41846V37.695ZM8.45086 29.9847H9.24615C9.64781 29.9847 9.95307 29.8797 10.1619 29.6695C10.3708 29.4594 10.4672 29.1119 10.4672 28.6108V27.8834C10.4672 27.4146 10.3869 27.0752 10.2262 26.865C10.0655 26.6468 9.80044 26.5417 9.43894 26.5417H8.45086V29.9847ZM8.45086 35.8362H9.61567C9.96913 35.8362 10.2342 35.7392 10.411 35.5452C10.5877 35.3512 10.6761 35.0199 10.6761 34.5592V33.4277C10.6761 32.8377 10.5716 32.4255 10.3708 32.1911C10.17 31.9648 9.83257 31.8436 9.36664 31.8436H8.45889V35.8362H8.45086Z" fill="#2A2A2A"/>
    <path d="M38.7598 34.5753V27.8025C38.7598 26.7519 39.0168 25.9517 39.531 25.386C40.0451 24.8202 40.8002 24.5374 41.7963 24.5374C42.7924 24.5374 43.5636 24.8202 44.1099 25.386C44.6561 25.9517 44.9293 26.7599 44.9293 27.8025V29.0714H42.8969V27.6732C42.8969 26.8165 42.5836 26.3962 41.9489 26.3962C41.1778 26.3962 40.7922 26.8246 40.7922 27.6732V34.6966C40.7922 35.5452 41.1778 35.9654 41.9489 35.9654C42.5836 35.9654 42.8969 35.5452 42.8969 34.6966V32.3043H42.0855V30.4454H44.9293V34.5753C44.9293 35.6179 44.6561 36.4261 44.1099 36.9919C43.5636 37.5576 42.7924 37.8405 41.7963 37.8405C40.8002 37.8405 40.0451 37.5576 39.531 36.9919C39.0168 36.4261 38.7598 35.6179 38.7598 34.5753Z" fill="#E60410"/>
</svg>
